# xmcd
#
# Track frame offsets: 
#        150
#        10358
#        24660
#        37015
#        45848
#        56245
#        65733
#        78538
#        88740
#        97585
#        114425
#        128450
#        135083
#        145840
#        158100
#        167635
#
# Disc length: 2336 seconds
#
# Revision: 0
# Processed by: cddbd v1.5.2PL0 Copyright (c) Steve Scherf et al.
# Submitted via: ExactAudioCopy v1.0b3
#
DISCID=c5091e10
DTITLE=Nara Leao - Nara Rara [Disc 2]
DYEAR=1900
DGENRE=Samba
TTITLE0=Fez Bobagem(Ao Vivo) [1972 6]
TTITLE1=Aguas De Marco [1972 6]
TTITLE2=Quando O Carnaval Chegar [1972]
TTITLE3=Mais Uma Estrela [1972]
TTITLE4=Minha Embaixada Chegou (Com Maria Bethania) [1972]
TTITLE5=Soneto [1972]
TTITLE6=Formosa (Com Maria Bethania) [1972]
TTITLE7=Cantores De Radio (Com Maria Bethania E Chico Buarque) [1972]
TTITLE8=Ta-Hi (Ta Hi) (Pra Voce Gostar De Mim) [1972 2002]
TTITLE9=Voce (Com Fagner) [1973]
TTITLE10=Pe De Sonhos (Com Fagner) [1973]
TTITLE11=Diz Que Fui Por Ai [1973]
TTITLE12=Quinze Anos [1973]
TTITLE13=A Donzela [1973]
TTITLE14=Pinga Fogo (Com Quinteto Violado) [1973]
TTITLE15=Grilo (Com Quinteto Violado) [1973]
EXTD=
EXTT0=
EXTT1=
EXTT2=
EXTT3=
EXTT4=
EXTT5=
EXTT6=
EXTT7=
EXTT8=
EXTT9=
EXTT10=
EXTT11=
EXTT12=
EXTT13=
EXTT14=
EXTT15=
PLAYORDER=
